<?xml version="1.0"?>
<svg xmlns="http://www.w3.org/2000/svg" id="Layer_1" data-name="Layer 1" viewBox="0 0 512 512" width="512" height="512"><title>Gear</title><path d="M437.208,42.275A60.751,60.751,0,0,0,429,163.221V248H264V163.248a60.758,60.758,0,1,0-16,0V248H83V163.221a60.766,60.766,0,1,0-16,.053V348.726a60.748,60.748,0,1,0,16,.053V264H248v84.752a60.758,60.758,0,1,0,16,0V264H437a8,8,0,0,0,8-8V163.274a60.75,60.75,0,0,0-7.792-121ZM211.242,103.033A44.758,44.758,0,1,1,256,147.791,44.809,44.809,0,0,1,211.242,103.033Zm-181.208,0a44.758,44.758,0,1,1,44.758,44.758A44.809,44.809,0,0,1,30.034,103.033Zm89.515,305.934a44.758,44.758,0,1,1-44.757-44.758A44.809,44.809,0,0,1,119.549,408.967Zm181.209,0A44.758,44.758,0,1,1,256,364.209,44.809,44.809,0,0,1,300.758,408.967Zm136.45-261.176a44.758,44.758,0,1,1,44.759-44.758A44.808,44.808,0,0,1,437.208,147.791Z"/></svg>
